<?xml version="1.0" encoding="UTF-8" standalone="no"?>
<!-- Generator: Adobe Illustrator 18.1.0, SVG Export Plug-In . SVG Version: 6.00 Build 0)  -->

<svg
   version="1.1"
   id="Calque_1"
   x="0px"
   y="0px"
   viewBox="0 0 415.099 122.991"
   enable-background="new 0 0 685 327"
   xml:space="preserve"
   sodipodi:docname="logo_doctolib.svg"
   width="415.099"
   height="122.991"
   inkscape:version="1.2 (dc2aedaf03, 2022-05-15)"
   xmlns:inkscape="http://www.inkscape.org/namespaces/inkscape"
   xmlns:sodipodi="http://sodipodi.sourceforge.net/DTD/sodipodi-0.dtd"
   xmlns="http://www.w3.org/2000/svg"
   xmlns:svg="http://www.w3.org/2000/svg"><defs
   id="defs37" /><sodipodi:namedview
   id="namedview35"
   pagecolor="#505050"
   bordercolor="#eeeeee"
   borderopacity="1"
   inkscape:showpageshadow="0"
   inkscape:pageopacity="0"
   inkscape:pagecheckerboard="0"
   inkscape:deskcolor="#505050"
   showgrid="false"
   inkscape:zoom="1.2003058"
   inkscape:cx="430.30701"
   inkscape:cy="177.87134"
   inkscape:window-width="1920"
   inkscape:window-height="1001"
   inkscape:window-x="-9"
   inkscape:window-y="-9"
   inkscape:window-maximized="1"
   inkscape:current-layer="Calque_1" />
<g
   id="g32"
   class="UnoptimicedTransforms"
   transform="translate(-136.23431,-102.14315)">
	<path
   fill="#4097e1"
   d="m 348.1,184.6 c -2.6,4.1 -10.3,-12.5 -16.5,-3.5 -1.1,1.6 -5.7,15.8 4,20 11.2,4.8 18.6,-7 23,-31.7 0.2,-1.2 0.1,13.4 0.7,13 0.6,-0.4 1.3,-0.5 2,-0.2 0.7,0.3 1.2,0.9 1.6,1.7 0.4,0.8 0.5,2 0.4,3.4 -0.3,1.6 -0.8,3.5 -1.5,5.7 -0.7,2.2 -8.5,16.3 -23.4,16.2 -15.2,-0.1 -22.9,-16.4 -23.6,-19 -0.8,-2.5 -1.1,-5 -1.1,-7.4 0,-2.4 0.4,-4.6 1.1,-6.6 0.7,-2 1.5,-3.4 2.4,-4.2 0.9,-0.8 5.1,-8.4 20.8,-4.4 15,4 11.1,15.3 10.1,17 z"
   id="path1716" />
	<path
   fill="#4097e1"
   d="m 385.3,139.9 c 0,0 -12.5,52.1 -12.8,54.2 -0.6,5 -0.7,7.7 3.4,9 5.8,2 11,-7.5 11,-7.5 7,-14.6 3.8,-15.8 15.3,-15.3 1.6,0.1 -3.4,6.2 -3.6,7.6 -0.1,0.7 -0.5,2.3 -1.3,4.6 -0.7,2.3 -1.8,4.8 -3.2,7.2 -1.4,2.5 -3.2,4.7 -5.2,6.6 -2,1.9 -4.3,2.9 -6.7,2.9 -4.9,0 -9.1,-1.4 -12.4,-4.1 -3.3,-2.7 -6,-6.1 -8,-10.1 -2.1,-4 -4.1,-8.6 -4.2,-13 -0.7,-15.9 8.8,-50.2 9.7,-51.3 1,-1.1 2.2,-1.6 3.8,-1.6 1.4,0 3.3,0.9 5.8,1.7 10.8,3.5 8.4,9.1 8.4,9.1 z"
   id="path1713" />
	<path
   fill="#4097e1"
   d="m 499.2,186 c 1,-2.2 2.3,-2.8 4.1,-2 1.8,0.8 2.5,2.6 2.1,5.2 -0.2,1.8 -0.7,3.7 -1.4,5.7 -0.7,2 -4.3,13.5 -15,13.5 -9.7,0 -15.8,-12.7 -17,-14.8 -1.1,-2 -2.1,-4.3 -2.8,-6.8 -0.8,-2.5 -1.2,-4.7 -1.4,-6.8 -0.2,-2 -0.1,-3.7 0.2,-5.1 0.3,-1.3 1,-1.9 2,-1.8 1,0.2 2.1,0.6 3.4,1 1.2,0.4 2.4,0.9 3.6,1.4 1.2,0.5 2.2,1.2 3.2,1.9 1,0.7 1.7,1.6 2.2,2.5 0.5,1 0.9,2.4 1.2,4.2 0.3,1.9 0.6,3.8 0.9,5.7 0.3,1.9 0.7,3.7 1,5.2 0.3,1.6 0.9,2.5 1.6,2.9 0.5,0.2 1.3,0.1 2.3,-0.5 1,-0.5 2.1,-1.4 3.2,-2.4 1.1,-1.1 2.3,-2.4 3.5,-4 1.2,-1.3 2.3,-3 3.1,-5 z"
   id="path1710" />
	<path
   fill="#4097e1"
   d="m 349.4,152.6 c 7,-0.5 13.9,-1.1 20.6,-1.9 6.7,-0.7 1.7,-0.4 7.1,-1.1 5.4,-0.7 9.9,-1.3 13.4,-1.8 3.6,-0.5 5.8,-0.8 6.6,-0.8 1.6,-0.1 3.4,0.2 5.5,0.8 2.1,0.6 4,1.3 5.7,2.1 1.8,0.8 3.2,1.8 4.3,2.7 1.1,1 1.5,1.9 1.1,2.8 -0.3,0.5 -2,0.8 -5.3,1 -3.3,0.2 -7.6,0.4 -12.9,0.5 -5.4,0.2 -11.6,0.3 -18.7,0.5 -7.1,0.2 11.8,-1.7 -11.4,-0.5 -23.1,1.3 -16,-4.3 -16,-4.3 z"
   id="path1707" />
	<path
   fill="#4097e1"
   d="m 286.4,168.7 c 1.8,0 3.6,0.5 5.3,1.4 1.7,0.9 2.8,2.2 3.3,3.8 3.6,0.8 6.3,2.5 8.2,5 1.9,2.5 2.9,5.4 3.2,8.5 3.4,0.4 9.8,-3.3 9.8,-10.7 0,-1.6 1.8,4.7 1.2,9.3 -0.2,1.2 -3.4,10.1 -12.8,11.1 -1.7,0.2 -2.4,1.8 -3.2,3.6 -0.6,1.3 -5.1,8.3 -16.4,8.3 -6.9,0 -11.8,-6.3 -13.6,-8.5 -1.8,-2.3 -2.8,-4.8 -2.8,-7.5 -0.2,-2.7 0.1,-5.4 0.9,-8.2 0.8,-2.8 1.9,-5.5 3.5,-7.8 1.5,-2.4 3.4,-4.3 5.7,-5.9 2.2,-1.6 4.7,-2.4 7.7,-2.4 z m -4.4,33.4 c 1.2,1.6 3.3,1.6 6.1,0 2.8,-1.6 5.4,-4 7.8,-7.3 -2.4,-1.5 -4.6,-3.6 -6.6,-6.3 -2,-2.6 -3.6,-5.7 -4.7,-9.2 -2.6,4.5 -4.2,8.9 -4.8,13.2 -0.6,4.5 0.2,7.7 2.2,9.6 z"
   id="path1704" />
	<path
   fill="#4097e1"
   d="m 409.3,168.7 c 1.8,0 3.6,0.5 5.3,1.4 1.7,0.9 2.8,2.2 3.3,3.8 3.6,0.8 6.3,2.5 8.2,5 1.9,2.5 2.9,5.4 3.2,8.5 3.4,0.4 9.8,-3.3 9.8,-10.7 0,-1.6 1.8,4.7 1.2,9.3 -0.2,1.2 -3.4,10.1 -12.8,11.1 -1.7,0.2 -2.4,1.8 -3.2,3.6 -0.6,1.3 -5.1,8.3 -16.4,8.3 -6.9,0 -11.8,-6.3 -13.6,-8.5 -1.8,-2.3 -2.8,-4.8 -2.8,-7.5 -0.2,-2.7 0.1,-5.4 0.9,-8.2 0.8,-2.8 1.9,-5.5 3.5,-7.8 1.5,-2.4 3.4,-4.3 5.7,-5.9 2.2,-1.6 4.8,-2.4 7.7,-2.4 z m -4.3,33.4 c 1.2,1.6 3.3,1.6 6.1,0 2.8,-1.6 5.4,-4 7.8,-7.3 -2.4,-1.5 -4.6,-3.6 -6.6,-6.3 -2,-2.6 -3.6,-5.7 -4.7,-9.2 -2.6,4.5 -4.2,8.9 -4.8,13.2 -0.6,4.5 0.1,7.7 2.2,9.6 z"
   id="path1701" />
	<g
   id="g16">
		<path
   fill="#4097e1"
   d="m 473.7,184.2 c -1.1,-0.7 -6,-11.8 -5.6,-9.2 0.6,4.3 -9.9,27.9 -17.8,23.9 -8.2,-4.2 -5.1,-17.4 -4.6,-18.1 2.1,-3.4 16.1,-20.3 21.9,-53.9 0.6,-3.3 1.9,-16.2 -11.5,-18.5 -14.4,-2.4 -17.6,4.9 -19,8 -5.6,12.7 -3.7,57.9 1.1,76.9 1.1,4.3 6.8,15.1 14.4,15.1 12.2,0 18.4,-12.4 19.3,-14.4 1,-2 1.8,-3.9 2.6,-5.9 0.5,-1.8 0.3,-3.2 -0.8,-3.9 z m -26.3,-41.3 c 0.2,-3.5 0.4,-7 0.6,-10.4 0.2,-3.4 0.6,-6.4 1.1,-9.1 0.5,-2.7 1.2,-4.8 2.1,-6.4 0.9,-1.6 2,-2.3 3.3,-2.2 2,0.2 3.3,1.5 4,4 0.7,2.5 0.9,5.6 0.7,9.4 -0.2,3.7 -0.8,7.8 -1.8,12.3 -1,4.5 -2,8.8 -3.1,13 -1.6,6.2 -5.3,13.8 -6.1,15.2 -0.5,-12.8 -1,-19.1 -0.8,-25.8 z"
   id="path1698" />
	</g>
	<g
   id="g22">
		<path
   fill="none"
   d="m 519.2,154 c 1.2,-4.2 2.3,-8.5 3.4,-13 1.1,-4.5 1.8,-8.6 2,-12.3 0.3,-3.7 0,-6.9 -0.7,-9.4 -0.8,-2.5 -2.2,-3.8 -4.4,-4 -1.4,-0.1 -2.6,0.7 -3.6,2.2 -1,1.6 -1.8,3.7 -2.4,6.4 -0.6,2.7 -1,5.7 -1.2,9.1 -0.2,3.4 -0.5,6.9 -0.6,10.4 -0.3,8.4 -0.2,18 0.3,28.8 0.9,-1.4 2.1,-3.8 3.5,-7.1 1.3,-3.2 2.6,-6.9 3.7,-11.1 z"
   id="path1695" />
		<path
   fill="#4097e1"
   d="m 551.3,184.4 c -0.5,-0.1 -1,0 -1.5,0.3 -0.5,0.3 -1,0.7 -1.4,1.2 -0.9,1.7 -2.1,2.7 -3.6,3.2 -1.5,0.4 -3.4,0.3 -5.8,-0.3 0,-1.4 -0.3,-2.9 -0.8,-4.3 -0.5,-1.4 -1.3,-2.7 -2.4,-3.8 -1.1,-1.3 -2.7,-2.3 -4.7,-2.9 -2,-0.6 -3.7,-0.9 -5,-0.9 -1.4,0.1 -2.5,0.5 -3.4,1.3 -0.9,0.7 -1.5,1.6 -1.7,2.7 -0.2,1.1 -0.1,2.3 0.3,3.6 0.4,1.3 1.2,2.7 2.3,4 -0.1,1.1 -0.3,2.4 -0.6,4 -0.3,1.6 -0.7,3 -1.2,4.3 -0.5,1.3 -1.2,2.4 -1.9,3.3 -0.7,0.8 -1.5,1 -2.6,0.4 -1,-0.6 -1.8,-1.7 -2.3,-3.2 -0.5,-1.5 -0.9,-3.1 -1.2,-4.8 -0.3,-1.9 -0.5,-4 -0.5,-6.1 2.3,-3.3 4.5,-7 6.7,-11.2 2.2,-4.2 4.2,-8.6 6,-13.3 1.8,-4.6 3.4,-9.3 4.8,-13.9 1.4,-4.6 2.4,-9 3.1,-13.1 0.7,-4.1 1,-7.8 0.8,-11.1 -0.2,-3.3 -0.9,-5.9 -2.2,-7.9 -1.1,-1.7 -2.9,-3.2 -5.2,-4.4 -2.3,-1.3 -4.8,-2.2 -7.2,-2.9 -2.5,-0.7 -4.8,-1.1 -7,-1.2 -2.2,-0.1 -3.8,0.1 -4.7,0.5 -3.1,1.3 -5.5,4.1 -7.4,8.4 -1.9,4.3 -3.2,9.3 -4,15 -0.8,5.7 -1.3,11.8 -1.4,18.3 -0.1,6.5 0.1,12.7 0.7,18.4 0.5,5.8 1.2,10.8 2.1,15.2 0.9,4.3 1.8,7.3 2.9,8.9 1.4,2 10.4,16.4 22.9,16.4 11.7,0 15.3,-14.1 12.5,-14.5 10,1.4 15.1,-9.5 14.6,-9.6 z m -39.7,-40.9 c 0.2,-3.5 0.4,-7 0.6,-10.4 0.2,-3.4 0.7,-6.4 1.2,-9.1 0.6,-2.7 1.4,-4.8 2.4,-6.4 1,-1.6 2.2,-2.3 3.6,-2.2 2.2,0.2 3.7,1.5 4.4,4 0.7,2.5 1,5.6 0.7,9.4 -0.2,3.7 -0.9,7.8 -2,12.3 -1.1,4.5 -2.2,8.8 -3.4,13 -1.2,4.2 -2.5,7.9 -3.9,11.2 -1.4,3.3 -2.6,5.7 -3.5,7.1 -0.3,-10.9 -0.4,-20.5 -0.1,-28.9 z m 18.7,41.8 c -0.4,-0.3 -0.8,-0.7 -1.1,-1 -0.4,-0.3 -0.7,-0.7 -0.9,-1 -0.3,-0.3 -0.4,-0.6 -0.5,-0.8 -0.1,-0.3 -0.1,-0.5 0.1,-0.6 0.2,-0.2 0.5,-0.3 0.9,-0.1 0.4,0.2 0.8,0.4 1.2,0.8 0.4,0.4 0.8,0.8 1.2,1.3 0.4,0.5 0.8,1.1 1.2,1.6 0.4,0.5 0.7,1 0.9,1.4 0.2,0.5 0.4,0.8 0.5,1 -1.4,-0.9 -2.5,-1.8 -3.5,-2.6 z"
   id="path1692" />
	</g>
	<path
   fill="#4097e1"
   d="m 482.9,154.1 c 0,4 -3.1,7.3 -7,7.3 -3.9,0 -7,-3.3 -7,-7.3 0,-4 3.1,-7.3 7,-7.3 3.9,0 7,3.2 7,7.3 z"
   id="path1689" />
	<path
   fill="#4097e1"
   d="m 152.3,164.1 c 0,0 -0.1,0.3 -0.4,0.9 -0.3,0.6 -0.6,1.4 -1,2.4 -0.8,2.1 -1.9,5.2 -2.4,8.9 -0.2,1.9 -0.4,3.9 -0.3,6 0,1.1 0.1,2.2 0.3,3.3 0.1,0.6 0.1,1.1 0.2,1.3 0.1,0.4 0.2,0.8 0.4,1.3 1.2,3.5 4.9,7.7 10,11.4 5.1,3.7 11.5,7.2 18.5,10.6 7,3.3 15,6.5 23.7,7.8 4.4,0.6 8.9,0.7 13.4,0.1 2.2,-0.3 4.5,-0.8 6.7,-1.4 2.2,-0.7 4.3,-1.5 6.4,-2.5 4.1,-2 7.8,-4.8 10.9,-8.1 3,-3.3 5.4,-7.2 7.2,-11.3 0.9,-2 1.6,-4.1 2.3,-6.2 0.6,-2.1 1.1,-4.2 1.7,-6.7 0.1,-0.6 0.3,-1.2 0.4,-1.8 l 0.4,-1.7 c 0.2,-1.1 0.5,-2.2 0.7,-3.3 0.2,-1.1 0.5,-2.3 0.7,-3.4 0.2,-1.1 0.4,-2.2 0.6,-3.3 1.5,-8.9 1.8,-17.6 0.4,-25 -0.7,-3.7 -1.9,-7 -3.4,-9.8 -0.8,-1.4 -1.7,-2.7 -2.6,-4 -1,-1.2 -2,-2.4 -3.2,-3.4 -4.7,-4.2 -11,-7.1 -17.3,-8.9 -6.4,-1.8 -12.7,-2.8 -18.4,-3.4 -5.7,-0.6 -10.8,-0.8 -15.1,-0.9 -4.2,-0.1 -7.6,-0.1 -9.9,-0.1 -2.3,0 -3.5,0 -3.5,0 h -0.9 l -0.3,-1.2 0.8,-0.4 c 0,0 1.1,-0.6 3.3,-1.5 2.2,-0.9 5.4,-2.2 9.7,-3.4 4.2,-1.3 9.5,-2.5 15.7,-3.4 6.2,-0.8 13.4,-1.3 21.5,-0.3 4,0.5 8.3,1.3 12.7,2.9 1.1,0.4 2.2,0.8 3.3,1.3 1.1,0.5 2.2,1 3.3,1.6 2.2,1.1 4.4,2.5 6.4,4.1 2.1,1.6 4,3.5 5.9,5.5 1.8,2.1 3.4,4.4 4.7,6.8 1.3,2.5 2.5,5 3.2,7.7 0.5,1.3 0.7,2.7 1.1,4 0.3,1.3 0.5,2.7 0.7,4 0.7,5.4 0.6,10.7 0,15.9 -0.6,5.2 -1.7,10.3 -3,15.2 -0.4,1.2 -0.7,2.5 -1.1,3.7 -0.4,1.2 -0.8,2.4 -1.2,3.6 -0.4,1.2 -0.9,2.4 -1.4,3.6 l -0.7,1.8 c -0.2,0.6 -0.5,1.1 -0.7,1.7 l -1.5,3.5 c -0.6,1.2 -1.2,2.4 -1.8,3.6 -1.3,2.4 -2.7,4.7 -4.4,6.8 -3.2,4.3 -7.1,8.2 -11.3,11.3 -4.2,3.2 -8.8,5.7 -13.5,7.6 -1.2,0.5 -2.4,0.9 -3.5,1.3 -1.2,0.4 -2.4,0.8 -3.6,1.1 -2.4,0.7 -4.8,1.3 -7.2,1.7 -4.8,1 -9.7,1.6 -14.5,1.9 -9.6,0.6 -19.2,0.1 -28,-2.1 -8.8,-2.2 -16.8,-6.2 -23.2,-11.6 -3.3,-2.6 -6.1,-5.6 -8.5,-8.9 -2.3,-3.3 -4.2,-7.1 -5,-11.2 -0.2,-1 -0.3,-2 -0.4,-3.1 -0.1,-1.2 -0.1,-2.1 0.1,-2.9 0.1,-0.8 0.2,-1.6 0.4,-2.4 0.1,-0.8 0.3,-1.5 0.5,-2.3 0.8,-3 1.9,-5.5 3.2,-7.7 2.6,-4.3 5.5,-6.8 7.6,-8.2 0.5,-0.4 1,-0.7 1.4,-0.9 0.4,-0.3 0.8,-0.4 1,-0.6 0.6,-0.3 0.9,-0.4 0.9,-0.4 l 0.8,-0.4 0.8,0.7 z"
   id="path1686" />
	<g
   id="g30">
		<path
   fill="#4097e1"
   d="m 209.6,132.8 c -3.7,18.7 -7.3,37.3 -11,56 -1.2,6.1 11.5,-1 12.4,-5.1 3.7,-18.7 7.3,-37.3 11,-56 1.1,-6.2 -11.6,0.9 -12.4,5.1 z"
   id="path1683" />
	</g>
</g>
</svg>
