<?xml version="1.0" encoding="UTF-8" standalone="no"?>
<!-- Created with Inkscape (http://www.inkscape.org/) -->

<svg
   width="100mm"
   height="100mm"
   viewBox="0 0 100 100"
   version="1.1"
   id="svg5"
   xml:space="preserve"
   inkscape:version="1.2 (dc2aedaf03, 2022-05-15)"
   sodipodi:docname="logo_florine-benard_ostheo.svg"
   xmlns:inkscape="http://www.inkscape.org/namespaces/inkscape"
   xmlns:sodipodi="http://sodipodi.sourceforge.net/DTD/sodipodi-0.dtd"
   xmlns="http://www.w3.org/2000/svg"
   xmlns:svg="http://www.w3.org/2000/svg"><sodipodi:namedview
     id="namedview7"
     pagecolor="#505050"
     bordercolor="#eeeeee"
     borderopacity="1"
     inkscape:showpageshadow="0"
     inkscape:pageopacity="0"
     inkscape:pagecheckerboard="0"
     inkscape:deskcolor="#505050"
     inkscape:document-units="mm"
     showgrid="false"
     inkscape:zoom="1.5019781"
     inkscape:cx="371.51007"
     inkscape:cy="167.44585"
     inkscape:window-width="1920"
     inkscape:window-height="1001"
     inkscape:window-x="-9"
     inkscape:window-y="1341"
     inkscape:window-maximized="1"
     inkscape:current-layer="layer1" /><defs
     id="defs2" /><g
     inkscape:label="Calque 1"
     inkscape:groupmode="layer"
     id="layer1"><circle
       style="fill:#ffffff;stroke-width:0.264583;opacity:0.9;fill-opacity:1"
       id="path254"
       cx="50"
       cy="50"
       r="50" /><path
       style="fill:#000000;stroke-width:0.265;stroke-dasharray:none"
       d="m 53.412973,94.743105 c 0.789731,-0.884806 1.075164,-2.765528 1.094222,-7.209896 0.01958,-4.567264 -0.416256,-7.657941 -1.697662,-12.038542 -1.197211,-4.092776 -1.636281,-6.845543 -1.772457,-11.1125 -0.211802,-6.636639 0.611886,-11.215116 3.643132,-20.250423 2.055903,-6.12807 3.064045,-10.119752 3.444624,-13.638787 0.717801,-6.637152 -0.647425,-12.927252 -3.866729,-17.815449 -0.842695,-1.27955 -1.440969,-3.7217664 -1.440969,-5.8821914 0,-0.979484 -0.120025,-1.85506 -0.266726,-1.945725 -0.146698,-0.09067 -0.529304,0.408324 -0.850233,1.108864 -0.477123,1.041479 -0.583912,1.756115 -0.585701,3.919543 -0.0021,2.4874334 0.05607,2.7735434 0.970945,4.7790174 2.569135,5.63175 3.406105,10.055617 2.863421,15.134827 -0.390546,3.655282 -1.096566,6.473436 -3.329821,13.291365 -2.632252,8.036039 -3.335512,11.177961 -3.821597,17.073613 -0.436469,5.293895 0.134684,9.791799 2.166012,17.057638 2.169721,7.760854 3.052508,12.945378 2.781935,16.338021 -0.138311,1.734262 -0.01458,1.954933 0.667604,1.190625 z m -3.183466,-6.19389 c 0.16057,-0.481711 -0.09335,-1.809756 -0.346025,-1.809756 -0.125267,0 -0.40331,0.339477 -0.617871,0.754391 -0.293751,0.568055 -0.315034,0.829469 -0.08617,1.058333 0.391268,0.391269 0.919152,0.389777 1.050065,-0.003 z m -0.785646,-3.045857 c 0.354618,-0.09622 0.422915,-0.291666 0.291383,-0.833851 -0.415139,-1.711216 -0.448106,-1.736227 -1.24206,-0.942271 -1.196575,1.196576 -0.653402,2.211369 0.950677,1.776122 z M 37.677846,81.64623 c 1.107141,-1.635665 1.645539,-3.195468 1.645539,-4.767318 0,-1.383173 0,-1.383173 -2.050521,-3.231907 -3.660875,-3.300616 -7.3391,-7.101052 -8.966904,-9.264838 -2.200069,-2.924485 -4.267929,-6.427073 -4.469729,-7.570944 -0.094,-0.532643 0.0214,-1.970765 0.26032,-3.24595 0.24036,-1.282737 0.40659,-3.366289 0.378,-4.737997 -0.0564,-2.707318 0.0268,-2.954497 1.75518,-5.214901 1.792461,-2.344163 6.209627,-9.398103 6.212857,-9.921539 0.0032,-0.520113 -3.040819,2.973459 -5.647877,6.481956 -3.91143,5.263888 -3.86765,5.168283 -3.87692,8.466666 -0.004,1.527969 -0.18121,3.836091 -0.39313,5.12916 -0.40396,2.46475 -0.26473,3.923424 0.5192,5.439376 0.60906,1.177801 3.02292,4.759431 4.64622,6.893965 1.671705,2.198179 7.091705,7.57187 9.061199,8.983779 0.71374,0.511672 1.336948,1.195639 1.431049,1.570572 0.205068,0.817047 -0.294174,3.334044 -0.977484,4.928142 -0.279667,0.652442 -0.458909,1.186257 -0.398309,1.186257 0.0606,0 0.452686,-0.506015 0.87131,-1.124479 z m 22.699492,-0.777348 c 0.0332,-2.383505 1.742006,-5.255779 5.007486,-8.416923 4.227279,-4.092218 6.967037,-7.592952 10.271222,-13.124082 2.221985,-3.719553 2.47142,-5.267802 1.5009,-9.316117 -0.293008,-1.222227 -0.527312,-3.114141 -0.527312,-4.257863 0,-2.623387 -0.305324,-3.199337 -4.101042,-7.736018 -2.615417,-3.125972 -6.172721,-6.709518 -6.417453,-6.464789 -0.157818,0.157821 4.388324,6.499545 6.273977,8.751993 2.68296,3.204851 2.657018,3.151103 2.657018,5.504892 0,1.240057 0.222469,2.951186 0.550968,4.237792 0.882777,3.457495 0.806937,4.452099 -0.538784,7.065835 -2.358665,4.581129 -5.05369,8.285158 -8.849963,12.163357 -3.17505,3.243567 -4.489892,4.909272 -5.322671,6.743023 -1.177557,2.59294 -1.418296,4.167076 -0.842721,5.510358 0.303532,0.708379 0.319733,0.676706 0.338375,-0.661458 z M 48.739633,80.752269 c -0.09095,-0.237019 -0.296421,-0.951394 -0.456594,-1.5875 -0.160174,-0.636109 -0.387512,-1.15656 -0.505193,-1.15656 -0.357283,0 -1.310711,1.362271 -1.310711,1.872761 0,0.600011 0.974402,1.302239 1.806971,1.302239 0.474258,0 0.589836,-0.106992 0.465527,-0.43094 z m -1.962417,-7.109685 c -0.22632,-0.945885 -0.50359,-1.719792 -0.616162,-1.719792 -0.445778,0 -2.075169,1.671715 -2.075169,2.129073 0,0.691306 1.010869,1.310511 2.139447,1.310511 0.963372,0 0.963372,0 0.551884,-1.719792 z m -1.020914,-5.854925 c -0.08253,-0.854374 -0.224242,-1.636686 -0.31492,-1.738474 -0.282874,-0.317516 -1.92341,0.642078 -2.223426,1.300544 -0.373986,0.820811 0.374415,1.615829 1.727832,1.835459 0.960562,0.155877 0.960562,0.155877 0.810514,-1.397529 z m -9.44047,-1.712553 c -0.536051,-1.255588 -1.099,-3.224657 -1.625785,-5.686631 -0.06521,-0.304761 -0.75931,-1.495386 -1.542447,-2.645834 -2.075974,-3.049656 -2.834394,-4.6384 -3.005458,-6.29585 -0.11503,-1.114523 -0.0459,-1.628079 0.287682,-2.137191 0.241501,-0.368577 0.550772,-0.670142 0.687271,-0.670142 0.391554,0 1.245669,1.016649 2.825181,3.362796 1.71963,2.554277 3.061824,3.855885 5.372729,5.210268 0.927905,0.54383 2.152912,1.387502 2.72224,1.874824 0.919925,0.787422 1.120955,0.856123 1.806157,0.61726 0.908394,-0.316666 0.806079,-0.638678 -0.27863,-0.876919 -0.672555,-0.147719 -2.129483,-1.45165 -2.424856,-2.170213 -0.0532,-0.12944 -0.57299,-0.519597 -1.155073,-0.867013 -2.129586,-1.271045 -3.089129,-2.231205 -4.92475,-4.92791 -2.751357,-4.042013 -3.931515,-4.660477 -5.49506,-2.879698 -1.000813,1.139864 -1.204846,1.886582 -0.998762,3.655287 0.188862,1.620901 1.800505,4.986198 3.36845,7.0337 0.603729,0.788384 1.307838,2.03854 1.564687,2.778125 0.741956,2.136436 1.810383,4.224583 2.662333,5.203298 0.786829,0.903904 0.786829,0.903904 0.154091,-0.578157 z m 17.341402,-0.826185 c 0.24126,-0.476716 0.997836,-2.033503 1.681284,-3.459528 1.39024,-2.900764 2.719353,-4.444262 5.380691,-6.248582 2.387539,-1.618695 3.448225,-2.769376 4.908775,-5.32528 1.477751,-2.586 2.453891,-3.957323 2.816921,-3.957323 0.411207,0 1.303496,1.657824 1.304573,2.423825 0.0019,1.347456 -1.029182,3.999277 -2.500599,6.431277 -1.303737,2.154859 -1.527619,2.736832 -1.872019,4.866209 -0.215154,1.330248 -0.628735,3.043629 -0.919073,3.807516 -0.758176,1.994781 -0.644586,2.121643 0.414417,0.46284 0.510966,-0.800364 1.279681,-2.57471 1.708259,-3.942992 0.449855,-1.436217 1.239255,-3.193863 1.867556,-4.158216 3.039734,-4.665565 3.545932,-8.786175 1.32612,-10.795077 -0.768635,-0.695606 -1.997712,-0.64453 -2.807993,0.116689 -0.364842,0.342752 -1.340861,1.758577 -2.168933,3.146282 -1.796822,3.011157 -2.688616,4.040048 -4.721074,5.446856 -2.047279,1.417066 -4.341585,3.699973 -5.18514,5.159375 -0.664276,1.149244 -1.96669,6.010063 -1.769139,6.602717 0.0532,0.159591 0.294114,-0.09987 0.535374,-0.576588 z M 45.463861,62.61873 c 0.05738,-0.92188 0.0621,-1.76438 0.01048,-1.872221 -0.05162,-0.107839 -0.533967,-0.01466 -1.071886,0.20706 -2.271389,0.936239 -2.139529,2.580513 0.254103,3.168597 0.697786,0.171434 0.703739,0.160348 0.8073,-1.503436 z m 0.277162,-4.626055 c 0.0725,-0.123801 0.21732,-1.045959 0.321823,-2.04924 0.190008,-1.824149 0.190008,-1.824149 -0.936715,-1.673024 -2.286825,0.306729 -3.305548,2.048021 -1.833996,3.134834 0.760383,0.56158 2.254186,0.919908 2.448888,0.58743 z m 1.607166,-8.361029 c 0.246756,-1.055026 0.447119,-2.007526 0.445254,-2.116667 -0.0058,-0.338182 -2.089541,-0.218289 -3.029103,0.174284 -1.271971,0.531463 -1.445414,1.330732 -0.50573,2.330529 0.604626,0.643303 2.081657,1.530083 2.548525,1.530083 0.05083,0 0.294301,-0.863203 0.541054,-1.918229 z M 30.381035,46.059771 c 1.893543,-2.021195 5.012597,-7.804394 5.164304,-9.575409 0.122002,-1.42427 -0.649523,-2.926154 -1.503183,-2.926154 -0.455845,0 -0.491876,0.09109 -0.268473,0.678683 0.701498,1.845077 0.250391,3.266017 -2.500291,7.875677 -0.899022,1.506604 -1.58337,2.990623 -1.667147,3.615246 -0.07817,0.582758 -0.08919,1.059561 -0.0245,1.059561 0.0647,0 0.424371,-0.327422 0.79928,-0.727604 z m 18.074483,-0.390824 c 0.569505,-1.542566 1.4512,-4.326806 1.4512,-4.582639 0,-0.482539 -1.971712,-0.693052 -3.317447,-0.354193 -2.981848,0.750838 -2.553416,3.478909 0.764035,4.865027 0.771118,0.322193 1.004165,0.337375 1.102212,0.07181 z m 21.368614,-1.602325 c 0.199528,-0.519962 -0.633528,-2.276258 -2.004591,-4.226187 -0.638874,-0.908611 -1.613242,-2.395268 -2.165258,-3.303683 -0.954632,-1.570974 -0.996913,-1.735777 -0.865457,-3.373437 0.07903,-0.984504 0.03281,-1.721774 -0.107937,-1.721774 -0.135376,0 -0.538384,0.292246 -0.895572,0.649433 -1.403612,1.40361 -0.727252,3.656645 2.465869,8.214109 2.141559,3.056594 3.353744,4.332767 3.572946,3.761539 z M 35.482923,41.729883 c 0.540986,-0.598808 1.458273,-2.077958 2.038411,-3.287003 1.873427,-3.904325 1.5929,-6.578005 -0.690179,-6.578005 -0.536686,0 -1.147148,0.192233 -1.393833,0.438917 -0.464396,0.464399 -0.490069,0.444384 1.438667,1.121672 0.738444,0.259307 0.344921,2.158333 -1.012034,4.883751 -1.186762,2.383589 -1.894252,4.50941 -1.500767,4.50941 0.07487,0 0.578747,-0.489934 1.119735,-1.088742 z m 29.13748,-2.152404 c -0.188238,-0.618464 -0.841095,-1.892816 -1.450793,-2.831894 -1.134226,-1.746977 -2.044226,-4.244999 -1.788845,-4.910513 0.0785,-0.204573 0.527185,-0.471575 0.997075,-0.593333 1.147024,-0.297225 1.221123,-0.712113 0.202541,-1.134023 -1.314977,-0.544682 -2.150732,0.05212 -2.433302,1.737585 -0.121256,0.723249 -0.150751,1.686594 -0.06555,2.140767 0.316828,1.688836 3.804029,6.670924 4.695344,6.708135 0.102179,0.0043 0.03177,-0.49826 -0.156472,-1.116724 z M 51.23913,37.230487 c 0.826604,-2.775577 0.810102,-3.177797 -0.141787,-3.4559 -1.299493,-0.379661 -3.032747,-0.0024 -3.879474,0.844264 -0.937046,0.937049 -0.946709,1.576271 -0.04011,2.6537 0.61713,0.733419 2.584381,1.841907 3.268858,1.841907 0.127294,0 0.483925,-0.847786 0.792513,-1.883971 z m 1.431669,-6.384258 c 0.0559,-0.181901 0.167388,-0.970762 0.247747,-1.753026 0.146111,-1.422298 0.146111,-1.422298 -0.795009,-1.269574 -1.846455,0.299638 -2.199185,1.295 -0.914254,2.579931 0.830013,0.830016 1.298837,0.972015 1.461516,0.442669 z m 0.142724,-6.482292 c -0.0085,-1.717693 -0.695616,-2.436085 -1.530972,-1.600729 -0.480436,0.480437 -0.385291,0.961678 0.331933,1.678901 0.844786,0.844787 1.203505,0.8214 1.199039,-0.07817 z m -0.791615,-3.694858 c -0.004,-0.559089 -0.57931,-2.192121 -0.772313,-2.192121 -0.523788,0 -0.851292,0.758316 -0.561425,1.29994 0.300932,0.562294 1.336315,1.254896 1.333738,0.892181 z m 6.149795,-6.973998 c 0.740537,-0.431444 1.056603,-1.224026 0.730848,-1.832707 -0.218284,-0.407867 -0.55399,-0.529166 -1.464517,-0.529166 -0.649724,0 -1.181316,0.121428 -1.181316,0.269841 0,0.252019 1.254569,2.385595 1.39238,2.367946 0.03456,-0.0044 0.269727,-0.128587 0.522605,-0.275914 z M 56.587447,9.9103506 c 0.84836,-0.65094 0.385527,-1.752143 -0.736423,-1.752143 -0.780248,0 -0.872704,0.155471 -0.673036,1.131748 0.191949,0.9385254 0.702159,1.1631014 1.409459,0.620395 z"
       id="path200" /></g></svg>
